<svg xmlns="http://www.w3.org/2000/svg" viewBox="0 0 173 238"><defs><style>.cls-1{fill:#f2fdff;}</style></defs><title>article-block-component-icon</title><g id="Layer_2" data-name="Layer 2"><g id="component_icons" data-name="component icons"><path class="cls-1" d="M161,0H12A12,12,0,0,0,0,12V226a12,12,0,0,0,12,12H161a12,12,0,0,0,12-12V12A12,12,0,0,0,161,0ZM144,211.72a4.29,4.29,0,0,1-4.28,4.28H35.28A4.29,4.29,0,0,1,31,211.72v-6.44A4.29,4.29,0,0,1,35.28,201H139.72a4.29,4.29,0,0,1,4.28,4.28Zm0-21.22a3.51,3.51,0,0,1-3.5,3.5H34.5a3.51,3.51,0,0,1-3.5-3.5v-8a3.51,3.51,0,0,1,3.5-3.5h106a3.51,3.51,0,0,1,3.5,3.5Zm0-25.39a6.91,6.91,0,0,1-6.89,6.89H37.89A6.91,6.91,0,0,1,31,165.11V129.89A6.91,6.91,0,0,1,37.89,123h99.22a6.91,6.91,0,0,1,6.89,6.89Zm0-59.39a5.29,5.29,0,0,1-5.28,5.28H36.28A5.29,5.29,0,0,1,31,105.72V97.28A5.3,5.3,0,0,1,36.28,92H138.72A5.29,5.29,0,0,1,144,97.28ZM144,72a12,12,0,0,1-12,12H43A12,12,0,0,1,31,72V29A12,12,0,0,1,43,17h89a12,12,0,0,1,12,12Z"/></g></g></svg>