<svg xmlns="http://www.w3.org/2000/svg" viewBox="0 0 117.33 123.56"><defs><style>.cls-1{fill:#f2fdff;}</style></defs><title>component-icon</title><g id="Layer_2" data-name="Layer 2"><g id="Component"><g id="component-icon"><path class="cls-1" d="M106,31.2,64.18,54.48a12.54,12.54,0,0,1-11-.06L11.23,30.71c-3-1.72-3-4.5,0-6.19L53,1.25a12.54,12.54,0,0,1,11,.05L106,25C109,26.74,109,29.52,106,31.2Z"/><path class="cls-1" d="M46.43,122.79l-41-24A11.84,11.84,0,0,1,0,89.67V44.13c0-3.3,2.43-4.57,5.4-2.84l41,24a11.84,11.84,0,0,1,5.4,9.14V120C51.83,123.24,49.4,124.52,46.43,122.79Z"/><path class="cls-1" d="M70.15,122.45l41.7-24a11.84,11.84,0,0,0,5.48-9.15V43.8c0-3.3-2.47-4.58-5.48-2.84l-41.7,24a11.84,11.84,0,0,0-5.48,9.15v45.53C64.67,122.91,67.14,124.19,70.15,122.45Z"/></g></g></g></svg>