<svg xmlns="http://www.w3.org/2000/svg" viewBox="0 0 202 245"><defs><style>.cls-1{fill:#f2fdff;}</style></defs><title>db-icon</title><g id="Layer_2" data-name="Layer 2"><g id="storage"><g id="db-icon"><ellipse class="cls-1" cx="100" cy="33.5" rx="99" ry="33.5"/><path class="cls-1" d="M202,56V97s-16,30-101,30V79S170,80,202,56Z"/><path class="cls-1" d="M0,56V97s16,30,101,30V79S32,80,0,56Z"/><path class="cls-1" d="M202,115v41s-16,30-101,30V138S170,139,202,115Z"/><path class="cls-1" d="M0,115v41s16,30,101,30V138S32,139,0,115Z"/><path class="cls-1" d="M202,174v41s-16,30-101,30V197S170,198,202,174Z"/><path class="cls-1" d="M0,174v41s16,30,101,30V197S32,198,0,174Z"/></g></g></g></svg>