<svg xmlns="http://www.w3.org/2000/svg" viewBox="0 0 338.27 299.15"><defs><style>.cls-1{fill:#f2fdff;}</style></defs><title>images-icon</title><g id="Layer_2" data-name="Layer 2"><g id="storage"><g id="Images"><path class="cls-1" d="M49.29,105.65a34.5,34.5,0,0,1,34.5-34.5H286L265.46,16.7a25.91,25.91,0,0,0-33.3-15L16.7,83.07a25.9,25.9,0,0,0-15,33.29L49.29,242.44Z"/><path class="cls-1" d="M309.84,81.15H84.73a28.53,28.53,0,0,0-28.44,28.44V270.72a28.52,28.52,0,0,0,28.44,28.43H309.84a28.51,28.51,0,0,0,28.43-28.43V109.59A28.52,28.52,0,0,0,309.84,81.15Zm-49.76,49.76a21.33,21.33,0,1,1-21.33,21.33A21.32,21.32,0,0,1,260.08,130.91Zm-11.39,154H77.62l85.54-123.58,43.48,62.82,29.51-32,85.54,92.77Z"/></g></g></g></svg>