<svg xmlns="http://www.w3.org/2000/svg" viewBox="0 0 359 192"><defs><style>.cls-1{fill:#f2fdff;}</style></defs><title>image-banner-component-icon</title><g id="Layer_2" data-name="Layer 2"><g id="component_icons" data-name="component icons"><path id="Image_banner" data-name="Image banner" class="cls-1" d="M347,0H12A12,12,0,0,0,0,12V180a12,12,0,0,0,12,12H347a12,12,0,0,0,12-12V12A12,12,0,0,0,347,0ZM127,28a8,8,0,0,1,8-8h89a8,8,0,0,1,8,8v6a8,8,0,0,1-8,8H135a8,8,0,0,1-8-8Zm69,157H38.7l78.65-89,40.81,46.18L183.85,115,250,185ZM263,72a8,8,0,0,1-8,8H104a8,8,0,0,1-8-8V66a8,8,0,0,1,8-8H255a8,8,0,0,1,8,8Z"/></g></g></svg>