<svg xmlns="http://www.w3.org/2000/svg" viewBox="0 0 220 238"><defs><style>.cls-1{fill:#f2fdff;}</style></defs><title>mailing-form-component-icon</title><g id="Layer_2" data-name="Layer 2"><g id="component_icons" data-name="component icons"><g id="mailing_form" data-name="mailing form"><path class="cls-1" d="M218.89,7,110,70,1.11,7A11.76,11.76,0,0,0,0,12V226a12,12,0,0,0,12,12H208a12,12,0,0,0,12-12V12A11.76,11.76,0,0,0,218.89,7ZM201,154a12,12,0,0,1-12,12H30a12,12,0,0,1-12-12v-4a12,12,0,0,1,12-12H189a12,12,0,0,1,12,12Zm1-49a12,12,0,0,1-12,12H31a12,12,0,0,1-12-12v-4A12,12,0,0,1,31,89H190a12,12,0,0,1,12,12Z"/><path class="cls-1" d="M210,.17A11.64,11.64,0,0,0,208,0H12a11.64,11.64,0,0,0-2,.17L110,58Z"/></g></g></g></svg>