<svg xmlns="http://www.w3.org/2000/svg" viewBox="0 0 445 265"><defs><style>.cls-1{fill:#f2fdff;}</style></defs><title>regions-icon</title><g id="Layer_2" data-name="Layer 2"><g id="tursas"><path class="cls-1" d="M433,0H12A12,12,0,0,0,0,12V253a12,12,0,0,0,12,12H433a12,12,0,0,0,12-12V12A12,12,0,0,0,433,0Zm-2,175.39-6.58,9.09a2.4,2.4,0,0,1-3.34.53l-71-51.47-63,48.94,61.06,61.06a2.4,2.4,0,0,1,0,3.38l-7.93,7.93a2.4,2.4,0,0,1-3.38,0L271.91,190h-89l-39.53,60.63a2.39,2.39,0,0,1-3.3.7l-9.4-6.13a2.4,2.4,0,0,1-.7-3.31l37.55-57.6L99.45,134.94l-22.17,38.4a2.39,2.39,0,0,1-3.26.87L64.3,168.6a2.4,2.4,0,0,1-.88-3.26l24.21-41.92a2.37,2.37,0,0,1,1.43-1.1L82.61,81.93,28.92,28.23a2.4,2.4,0,0,1,0-3.38l6.28-6.27a2.4,2.4,0,0,1,3.38,0L93.32,73.32,174.4,40.83a2.39,2.39,0,0,1,3.1,1.32l4.18,10.42a2.4,2.4,0,0,1-1.33,3.11L98.17,88.61l4.63,29L180.62,174h91.25l67.07-52.1,2.93-4.05L323,28.16a2.39,2.39,0,0,1,1.85-2.83l11-2.31a2.39,2.39,0,0,1,2.83,1.84L358.68,120l71.78,52A2.41,2.41,0,0,1,431,175.39Z"/></g></g></svg>