<svg xmlns="http://www.w3.org/2000/svg" viewBox="0 0 267 267"><defs><style>.cls-1{fill:#f2fdff;stroke:#000;stroke-miterlimit:10;stroke-width:3px;}</style></defs><title>Settings-icon</title><g id="Layer_2" data-name="Layer 2"><g id="settings-icon"><path id="icon" class="cls-1" d="M265.5,161.5v-54H235.25a103.84,103.84,0,0,0-9.82-24.75L245.68,62.5,207.5,24.32,188.05,43.77A104.56,104.56,0,0,0,160.5,32V1.5h-54V32a104.36,104.36,0,0,0-30,13.3l-21-21L17.32,62.5,40.17,85.35a104.07,104.07,0,0,0-8.42,22.15H1.5v54H32.28a104.26,104.26,0,0,0,11.49,26.55L22.32,209.5,60.5,247.68l22.25-22.25A103.85,103.85,0,0,0,106.5,235V265.5h54V235a104.53,104.53,0,0,0,21.15-8.16l22.85,22.85,38.18-38.18-21-21a104.21,104.21,0,0,0,13-29ZM135.58,173.45a40,40,0,1,1,37.87-37.87A40,40,0,0,1,135.58,173.45Z"/></g></g></svg>