<svg xmlns="http://www.w3.org/2000/svg" viewBox="0 0 220 238"><defs><style>.cls-1{fill:#f2fdff;}</style></defs><title>site-navigation-component-icon</title><g id="Layer_2" data-name="Layer 2"><g id="component_icons" data-name="component icons"><path class="cls-1" d="M208,0H12A12,12,0,0,0,0,12V226a12,12,0,0,0,12,12H208a12,12,0,0,0,12-12V12A12,12,0,0,0,208,0ZM34,204a15,15,0,1,1,15-15A15,15,0,0,1,34,204Zm0-46a15,15,0,1,1,15-15A15,15,0,0,1,34,158Zm0-47A15,15,0,1,1,49,96,15,15,0,0,1,34,111Zm0-46A15,15,0,1,1,49,50,15,15,0,0,1,34,65ZM205,194.89a9.14,9.14,0,0,1-9.11,9.11H70.11A9.14,9.14,0,0,1,61,194.89V183.11A9.14,9.14,0,0,1,70.11,174H195.89a9.14,9.14,0,0,1,9.11,9.11Zm0-46a9.14,9.14,0,0,1-9.11,9.11H70.11A9.14,9.14,0,0,1,61,148.89V137.11A9.14,9.14,0,0,1,70.11,128H195.89a9.14,9.14,0,0,1,9.11,9.11Zm0-47a9.14,9.14,0,0,1-9.11,9.11H70.11A9.14,9.14,0,0,1,61,101.89V90.11A9.14,9.14,0,0,1,70.11,81H195.89A9.14,9.14,0,0,1,205,90.11Zm0-46A9.14,9.14,0,0,1,195.89,65H70.11A9.14,9.14,0,0,1,61,55.89V44.11A9.14,9.14,0,0,1,70.11,35H195.89A9.14,9.14,0,0,1,205,44.11Z"/></g></g></svg>