<svg xmlns="http://www.w3.org/2000/svg" viewBox="0 0 156.75 256"><defs><style>.cls-1{fill:#f2fdff;}</style></defs><title>wine-icon</title><g id="Layer_2" data-name="Layer 2"><g id="tursas"><path class="cls-1" d="M156.37,101c3-57-13-94-13-94l-6-7h-118l-6,7s-16,37-13,94,67,65,67,65v59.67s-18,12.33-54,22.33a28,28,0,0,0-5,8h140a28,28,0,0,0-5-8c-36-10-54-22.33-54-22.33V166S153.37,158,156.37,101Zm-107-62c-11,16-9,68-9,68s-2,20,37,40c-18-1-51-14-56-46s9-83,9-83h96l4,20S81.37,38,49.37,39Z"/></g></g></svg>