<svg xmlns="http://www.w3.org/2000/svg" viewBox="0 0 259.3 259.3"><defs><style>.cls-1{fill:#f2fdff;}</style></defs><title>X-icon</title><g id="Layer_2" data-name="Layer 2"><g id="tursas"><path class="cls-1" d="M257,226.58l-96.92-96.93L256.76,33a8.24,8.24,0,0,0,0-11.66L238,2.54a8.26,8.26,0,0,0-11.66,0l-96.7,96.71L32.73,2.32a8,8,0,0,0-11.22,0L2.32,21.51a8,8,0,0,0,0,11.22l96.93,96.92L2.54,226.35a8.26,8.26,0,0,0,0,11.66l18.75,18.75a8.24,8.24,0,0,0,11.66,0l96.7-96.7L226.58,257a7.92,7.92,0,0,0,11.21,0L257,237.79A7.92,7.92,0,0,0,257,226.58Z"/></g></g></svg>